<?xml version="1.0" encoding="UTF-8" standalone="no"?><!DOCTYPE svg PUBLIC "-//W3C//DTD SVG 1.1//EN" "http://www.w3.org/Graphics/SVG/1.1/DTD/svg11.dtd"><!-- Generated by graphviz version 2.40.1 (20161225.0304)
 --><!-- Title: Dependencies Pages: 1 --><svg xmlns="http://www.w3.org/2000/svg" xmlns:xlink="http://www.w3.org/1999/xlink" width="1420pt" height="116pt" viewBox="0.00 0.00 1419.59 116.00">
<g id="graph0" class="graph" transform="scale(1 1) rotate(0) translate(4 112)">
<title>Dependencies</title>
<polygon fill="#ffffff" stroke="transparent" points="-4,4 -4,-112 1415.5886,-112 1415.5886,4 -4,4"/>
<!-- Matplotlib -->
<g id="node1" class="node">
<title>Matplotlib</title>
<polygon fill="none" stroke="#000000" points="283.1575,-108 207.9329,-108 207.9329,-72 283.1575,-72 283.1575,-108"/>
<text text-anchor="middle" x="245.5452" y="-85.8" font-family="Times,serif" font-size="14.00" fill="#000000">Matplotlib</text>
</g>
<!-- Numpy -->
<g id="node2" class="node">
<title>Numpy</title>
<ellipse fill="none" stroke="#000000" cx="40.5452" cy="-18" rx="40.5905" ry="18"/>
<text text-anchor="middle" x="40.5452" y="-13.8" font-family="Times,serif" font-size="14.00" fill="#000000">NumPy</text>
</g>
<!-- Matplotlib&#45;&gt;Numpy -->
<g id="edge1" class="edge">
<title>Matplotlib-&gt;Numpy</title>
<path fill="none" stroke="#000000" d="M207.9221,-77.0142C176.5097,-66.1428 130.5681,-50.1754 90.5452,-36 87.6387,-34.9705 84.6388,-33.9031 81.6196,-32.8251"/>
<polygon fill="#000000" stroke="#000000" points="82.5953,-29.4569 72.0007,-29.3798 80.2348,-36.0469 82.5953,-29.4569"/>
</g>
<!-- Pillow -->
<g id="node3" class="node">
<title>Pillow</title>
<ellipse fill="none" stroke="#000000" cx="135.5452" cy="-18" rx="36.0129" ry="18"/>
<text text-anchor="middle" x="135.5452" y="-13.8" font-family="Times,serif" font-size="14.00" fill="#000000">Pillow</text>
</g>
<!-- Matplotlib&#45;&gt;Pillow -->
<g id="edge2" class="edge">
<title>Matplotlib-&gt;Pillow</title>
<path fill="none" stroke="#000000" d="M217.7876,-71.8314C202.1069,-61.5676 182.4737,-48.7168 166.3229,-38.1454"/>
<polygon fill="#000000" stroke="#000000" points="168.0396,-35.086 157.7557,-32.5378 164.2059,-40.9429 168.0396,-35.086"/>
</g>
<!-- Kiwisolver -->
<g id="node4" class="node">
<title>Kiwisolver</title>
<ellipse fill="none" stroke="#000000" cx="245.5452" cy="-18" rx="55.614" ry="18"/>
<text text-anchor="middle" x="245.5452" y="-13.8" font-family="Times,serif" font-size="14.00" fill="#000000">KiwiSolver</text>
</g>
<!-- Matplotlib&#45;&gt;Kiwisolver -->
<g id="edge3" class="edge">
<title>Matplotlib-&gt;Kiwisolver</title>
<path fill="none" stroke="#000000" d="M245.5452,-71.8314C245.5452,-64.131 245.5452,-54.9743 245.5452,-46.4166"/>
<polygon fill="#000000" stroke="#000000" points="249.0453,-46.4132 245.5452,-36.4133 242.0453,-46.4133 249.0453,-46.4132"/>
</g>
<!-- Pyparsing -->
<g id="node5" class="node">
<title>Pyparsing</title>
<ellipse fill="none" stroke="#000000" cx="369.5452" cy="-18" rx="50.3994" ry="18"/>
<text text-anchor="middle" x="369.5452" y="-13.8" font-family="Times,serif" font-size="14.00" fill="#000000">PyParsing</text>
</g>
<!-- Matplotlib&#45;&gt;Pyparsing -->
<g id="edge4" class="edge">
<title>Matplotlib-&gt;Pyparsing</title>
<path fill="none" stroke="#000000" d="M276.8357,-71.8314C294.187,-61.7564 315.8314,-49.1887 333.8419,-38.731"/>
<polygon fill="#000000" stroke="#000000" points="335.9966,-41.5271 342.887,-33.479 332.4816,-35.4736 335.9966,-41.5271"/>
</g>
<!-- PythonDateutil -->
<g id="node6" class="node">
<title>PythonDateutil</title>
<ellipse fill="none" stroke="#000000" cx="509.5452" cy="-18" rx="71.8491" ry="18"/>
<text text-anchor="middle" x="509.5452" y="-13.8" font-family="Times,serif" font-size="14.00" fill="#000000">Python Dateutil</text>
</g>
<!-- Matplotlib&#45;&gt;PythonDateutil -->
<g id="edge5" class="edge">
<title>Matplotlib-&gt;PythonDateutil</title>
<path fill="none" stroke="#000000" d="M283.37,-79.6842C327.0781,-67.7638 399.5308,-48.0039 450.6365,-34.066"/>
<polygon fill="#000000" stroke="#000000" points="451.8315,-37.368 460.5582,-31.3601 449.9896,-30.6147 451.8315,-37.368"/>
</g>
<!-- Express -->
<g id="node7" class="node">
<title>Express</title>
<polygon fill="none" stroke="#000000" points="1011.8631,-108 951.2274,-108 951.2274,-72 1011.8631,-72 1011.8631,-108"/>
<text text-anchor="middle" x="981.5452" y="-85.8" font-family="Times,serif" font-size="14.00" fill="#000000">Express</text>
</g>
<!-- BodyParser -->
<g id="node8" class="node">
<title>BodyParser</title>
<ellipse fill="none" stroke="#000000" cx="657.5452" cy="-18" rx="58.5066" ry="18"/>
<text text-anchor="middle" x="657.5452" y="-13.8" font-family="Times,serif" font-size="14.00" fill="#000000">Body Parser</text>
</g>
<!-- Express&#45;&gt;BodyParser -->
<g id="edge6" class="edge">
<title>Express-&gt;BodyParser</title>
<path fill="none" stroke="#000000" d="M951.3544,-84.2193C903.2053,-74.8739 806.1336,-55.5154 724.5452,-36 720.1433,-34.9471 715.5901,-33.8155 711.0248,-32.6509"/>
<polygon fill="#000000" stroke="#000000" points="711.6238,-29.1905 701.0653,-30.0666 709.8656,-35.9661 711.6238,-29.1905"/>
</g>
<!-- Cookie -->
<g id="node9" class="node">
<title>Cookie</title>
<ellipse fill="none" stroke="#000000" cx="772.5452" cy="-18" rx="38.8652" ry="18"/>
<text text-anchor="middle" x="772.5452" y="-13.8" font-family="Times,serif" font-size="14.00" fill="#000000">Cookie</text>
</g>
<!-- Express&#45;&gt;Cookie -->
<g id="edge7" class="edge">
<title>Express-&gt;Cookie</title>
<path fill="none" stroke="#000000" d="M951.1692,-80.1645C918.7188,-69.5751 865.8303,-52.0798 820.5452,-36 817.8326,-35.0368 815.0392,-34.0296 812.2287,-33.005"/>
<polygon fill="#000000" stroke="#000000" points="813.2936,-29.6674 802.7002,-29.4927 810.8725,-36.2354 813.2936,-29.6674"/>
</g>
<!-- Debug -->
<g id="node10" class="node">
<title>Debug</title>
<ellipse fill="none" stroke="#000000" cx="866.5452" cy="-18" rx="36.5613" ry="18"/>
<text text-anchor="middle" x="866.5452" y="-13.8" font-family="Times,serif" font-size="14.00" fill="#000000">Debug</text>
</g>
<!-- Express&#45;&gt;Debug -->
<g id="edge8" class="edge">
<title>Express-&gt;Debug</title>
<path fill="none" stroke="#000000" d="M952.5259,-71.8314C935.8673,-61.4016 914.9419,-48.3005 897.9056,-37.6343"/>
<polygon fill="#000000" stroke="#000000" points="899.7276,-34.6457 889.3944,-32.3056 896.013,-40.5788 899.7276,-34.6457"/>
</g>
<!-- Finalhandler -->
<g id="node11" class="node">
<title>Finalhandler</title>
<ellipse fill="none" stroke="#000000" cx="981.5452" cy="-18" rx="59.6897" ry="18"/>
<text text-anchor="middle" x="981.5452" y="-13.8" font-family="Times,serif" font-size="14.00" fill="#000000">Finalhandler</text>
</g>
<!-- Express&#45;&gt;Finalhandler -->
<g id="edge9" class="edge">
<title>Express-&gt;Finalhandler</title>
<path fill="none" stroke="#000000" d="M981.5452,-71.8314C981.5452,-64.131 981.5452,-54.9743 981.5452,-46.4166"/>
<polygon fill="#000000" stroke="#000000" points="985.0453,-46.4132 981.5452,-36.4133 978.0453,-46.4133 985.0453,-46.4132"/>
</g>
<!-- Methods -->
<g id="node12" class="node">
<title>Methods</title>
<ellipse fill="none" stroke="#000000" cx="1104.5452" cy="-18" rx="44.6645" ry="18"/>
<text text-anchor="middle" x="1104.5452" y="-13.8" font-family="Times,serif" font-size="14.00" fill="#000000">Methods</text>
</g>
<!-- Express&#45;&gt;Methods -->
<g id="edge10" class="edge">
<title>Express-&gt;Methods</title>
<path fill="none" stroke="#000000" d="M1011.9497,-72.2022C1029.6792,-61.824 1052.0876,-48.7069 1070.4192,-37.9762"/>
<polygon fill="#000000" stroke="#000000" points="1072.1905,-40.9949 1079.0526,-32.9225 1068.6543,-34.9538 1072.1905,-40.9949"/>
</g>
<!-- Parseurl -->
<g id="node13" class="node">
<title>Parseurl</title>
<ellipse fill="none" stroke="#000000" cx="1210.5452" cy="-18" rx="42.8518" ry="18"/>
<text text-anchor="middle" x="1210.5452" y="-13.8" font-family="Times,serif" font-size="14.00" fill="#000000">Parseurl</text>
</g>
<!-- Express&#45;&gt;Parseurl -->
<g id="edge11" class="edge">
<title>Express-&gt;Parseurl</title>
<path fill="none" stroke="#000000" d="M1011.7174,-81.1663C1047.0326,-70.741 1107.2215,-52.7056 1158.5452,-36 1161.6339,-34.9947 1164.8193,-33.9389 1168.0214,-32.8637"/>
<polygon fill="#000000" stroke="#000000" points="1169.254,-36.1415 1177.5973,-29.6115 1167.0029,-29.5134 1169.254,-36.1415"/>
</g>
<!-- PathToRegexp -->
<g id="node14" class="node">
<title>PathToRegexp</title>
<ellipse fill="none" stroke="#000000" cx="1341.5452" cy="-18" rx="70.0867" ry="18"/>
<text text-anchor="middle" x="1341.5452" y="-13.8" font-family="Times,serif" font-size="14.00" fill="#000000">Path to Regexp</text>
</g>
<!-- Express&#45;&gt;PathToRegexp -->
<g id="edge12" class="edge">
<title>Express-&gt;PathToRegexp</title>
<path fill="none" stroke="#000000" d="M1011.9684,-84.5058C1063.5993,-75.1027 1171.6306,-55.0871 1262.5452,-36 1267.9659,-34.862 1273.5879,-33.6482 1279.2212,-32.4089"/>
<polygon fill="#000000" stroke="#000000" points="1280.3299,-35.7479 1289.3322,-30.1614 1278.8109,-28.9147 1280.3299,-35.7479"/>
</g>
</g>
</svg>